<?xml version="1.0" standalone="no"?>
<!DOCTYPE svg PUBLIC "-//W3C//DTD SVG 20010904//EN"
 "http://www.w3.org/TR/2001/REC-SVG-20010904/DTD/svg10.dtd">
<svg version="1.0" xmlns="http://www.w3.org/2000/svg"
 width="225.000000pt" height="225.000000pt" viewBox="0 0 225.000000 225.000000"
 preserveAspectRatio="xMidYMid meet">
<metadata>
Created by potrace 1.11, written by Peter Selinger 2001-2013
</metadata>
<g transform="translate(0.000000,225.000000) scale(0.100000,-0.100000)"
fill="#000000" stroke="none">
<path d="M0 1125 l0 -1125 1125 0 1125 0 0 1125 0 1125 -1125 0 -1125 0 0
-1125z m1285 810 c241 -42 411 -204 446 -423 22 -135 -29 -298 -127 -402 -53
-57 -92 -83 -173 -116 -31 -13 -55 -27 -54 -32 1 -6 290 -492 390 -655 2 -4
-102 -6 -233 -5 l-237 3 -182 315 c-160 275 -186 315 -209 318 l-26 3 0 -320
0 -321 -200 0 -200 0 0 825 0 825 359 0 c276 0 378 -3 446 -15z"/>
<path d="M880 1445 l0 -195 153 0 c127 0 159 4 193 19 142 65 130 304 -19 360
-16 6 -96 11 -178 11 l-149 0 0 -195z"/>
</g>
</svg>
